<svg width="350" height="48" viewBox="0 0 350 48" fill="none" xmlns="http://www.w3.org/2000/svg">
<path fill-rule="evenodd" clip-rule="evenodd" d="M2.31138 48C0.946317 48 0.296287 47.1161 0.556299 45.7564L9.46171 1.83569C9.72172 0.679887 10.4368 0 11.6068 0H19.2122C20.5772 0 21.2273 0.883853 20.9672 2.24363L14.0119 36.4419H37.478C38.8431 36.4419 39.4931 37.3258 39.2331 38.6856L37.738 46.1643C37.478 47.3201 36.763 48 35.5929 48H2.31138ZM58.084 48C47.6835 48 42.8083 41.2011 44.7584 31.4788L47.7485 16.5892C49.7636 6.79887 54.8338 0 65.2343 0H82.3301C92.7306 0 97.6708 6.79887 95.6557 16.5892L92.6656 31.4788C90.7155 41.2011 85.5803 48 75.1798 48H58.084ZM59.1245 36.4422H76.2203C79.0804 36.4422 80.3155 35.2864 81.0305 31.887L84.2156 16.1816C84.9307 12.6462 84.2806 11.5583 81.2905 11.5583H64.1947C61.2696 11.5583 60.1645 12.6462 59.4495 16.1816L56.2643 31.887C55.5493 35.2864 56.2643 36.4422 59.1245 36.4422ZM133.228 48C132.058 48 131.408 47.3881 131.148 46.1643L130.043 40.5212H107.682L103.976 46.6402C103.456 47.5921 102.676 48 101.636 48H92.6008C91.0407 48 90.4557 46.9122 91.3007 45.5524L119.512 1.29178C120.097 0.407932 120.812 0 121.852 0H131.083C132.253 0 132.968 0.611898 133.228 1.76771L143.433 45.7564C143.758 47.1161 143.108 48 141.743 48H133.228ZM113.596 30.7305H128.157L124.647 12.3735L113.596 30.7305ZM150.259 48C148.894 48 148.243 47.1161 148.504 45.7564L157.409 1.83569C157.669 0.679887 158.384 0 159.554 0H186.205C196.541 0 201.546 6.39093 199.206 18.017L196.736 30.255C194.396 41.813 189.39 48 179.055 48H150.259ZM161.959 36.5782H178.665C181.59 36.5782 184.125 35.8983 185.295 30.1193L187.765 18.0853C188.935 12.3062 186.855 11.5583 183.735 11.5583H167.029L161.959 36.5782ZM202.65 48C201.285 48 200.635 47.1161 200.895 45.7564L209.801 1.83569C210.061 0.679887 210.776 0 211.946 0H246.788C248.153 0 248.803 0.883853 248.543 2.24363L247.048 9.72238C246.788 10.8782 246.072 11.5581 244.902 11.5581H219.356L217.926 18.6289H233.072C234.437 18.6289 235.087 19.5127 234.827 20.8725L233.527 27.2635C233.267 28.4193 232.552 29.0991 231.382 29.0991H215.781L214.286 36.4419H239.377C240.742 36.4419 241.392 37.3258 241.132 38.6856L239.637 46.1643C239.377 47.3201 238.662 48 237.492 48H202.65ZM279.744 0C292.745 0 298.335 6.39093 295.995 18.017L295.735 19.3088C294.045 27.5354 290.924 33.6544 283.969 36.034L288.389 45.6204C289.039 47.0482 288.454 48 286.959 48H278.574C277.469 48 276.754 47.5241 276.364 46.4363L272.724 37.0538H259.528L257.708 46.1643C257.448 47.3201 256.733 48 255.563 48H247.957C246.592 48 245.942 47.1161 246.202 45.7564L255.108 1.83569C255.368 0.679887 256.083 0 257.253 0H279.744ZM284.36 18.0853C285.725 12.3742 282.799 11.5583 277.729 11.5583H264.729L261.869 25.632H274.869C279.744 25.632 282.734 24.8841 284.1 19.1731L284.36 18.0853ZM311.986 48C301.585 48 296.71 41.2011 298.66 31.4788L301.65 16.5892C303.665 6.79887 308.736 0 319.136 0H336.232C346.632 0 351.573 6.79887 349.558 16.5892L346.567 31.4788C344.617 41.2011 339.482 48 329.082 48H311.986ZM313.026 36.4422H330.121C332.982 36.4422 334.217 35.2864 334.932 31.887L338.117 16.1816C338.832 12.6462 338.182 11.5583 335.192 11.5583H318.096C315.171 11.5583 314.066 12.6462 313.351 16.1816L310.166 31.887C309.451 35.2864 310.166 36.4422 313.026 36.4422Z" fill="url(#paint0_linear)"/>
<defs>
<linearGradient id="paint0_linear" x1="0.499995" y1="48" x2="290.835" y2="-109.243" gradientUnits="userSpaceOnUse">
<stop offset="0.26011" stop-color="#6C30CF"/>
<stop offset="1" stop-color="#0CD2E4"/>
</linearGradient>
</defs>
</svg>
